<?xml version="1.0" standalone="no"?>
<!DOCTYPE svg PUBLIC "-//W3C//DTD SVG 20010904//EN"
 "http://www.w3.org/TR/2001/REC-SVG-20010904/DTD/svg10.dtd">
<svg version="1.0" xmlns="http://www.w3.org/2000/svg"
 width="141.000000pt" height="141.000000pt" viewBox="0 0 141.000000 141.000000"
 preserveAspectRatio="xMidYMid meet">
<metadata>
Created by potrace 1.14, written by Peter Selinger 2001-2017
</metadata>
<g transform="translate(0.000000,141.000000) scale(0.100000,-0.100000)"
fill="#000000" stroke="none">
<path d="M598 1273 l-97 -97 -38 22 c-179 108 -293 130 -328 62 -32 -61 -10
-149 69 -279 l38 -62 -102 -104 c-85 -87 -100 -106 -91 -122 5 -10 50 -58 100
-108 50 -49 91 -93 91 -97 0 -4 -18 -36 -40 -71 -49 -78 -80 -162 -80 -217 0
-117 137 -120 313 -7 31 20 61 37 65 37 4 0 52 -45 107 -100 55 -55 104 -100
110 -100 5 0 55 45 111 101 l102 101 68 -41 c203 -122 335 -103 311 46 -6 36
-57 147 -99 215 l-23 37 103 104 c56 57 102 108 102 112 0 4 -46 55 -102 112
-97 98 -102 105 -88 126 113 179 136 273 79 329 -28 28 -34 30 -82 25 -59 -6
-127 -34 -205 -84 -30 -19 -58 -33 -63 -31 -5 2 -53 45 -108 96 -55 50 -105
92 -113 92 -7 0 -57 -44 -110 -97z m195 -61 l78 -78 -62 -50 c-34 -27 -70 -55
-80 -62 -15 -12 -26 -6 -94 49 l-76 63 78 78 c43 43 78 78 78 78 0 0 35 -35
78 -78z m-458 -24 c34 -16 72 -38 85 -48 l25 -19 -75 -76 c-87 -87 -78 -90
-141 39 -37 76 -48 124 -32 140 12 12 74 -4 138 -36z m903 9 c4 -29 -39 -130
-80 -191 l-24 -35 -77 77 -77 78 54 32 c70 43 145 72 176 69 19 -1 26 -8 28
-30z m-666 -164 c33 -27 67 -53 75 -59 11 -10 -4 -30 -88 -113 -57 -56 -104
-101 -105 -101 -6 0 -114 139 -114 147 0 7 161 173 168 173 2 0 31 -21 64 -47z
m437 -37 l84 -85 -27 -38 c-14 -21 -42 -56 -61 -78 l-34 -40 -101 100 c-55 55
-100 102 -100 106 0 8 139 119 149 119 3 0 44 -38 90 -84z m-221 -152 c39 -36
86 -83 103 -105 l32 -41 -104 -104 -104 -104 -102 102 c-57 57 -103 107 -103
113 0 10 190 205 201 205 4 0 38 -30 77 -66z m-440 -65 l60 -76 -59 -74 c-33
-41 -63 -75 -67 -77 -4 -1 -41 32 -82 73 l-75 75 80 80 c43 44 80 78 81 77 1
-1 29 -36 62 -78z m872 -153 c-43 -44 -81 -78 -83 -76 -1 3 -29 38 -61 79 -40
50 -56 78 -50 86 5 7 33 42 63 79 l54 68 79 -79 78 -78 -80 -79z m-560 -182
c0 -6 -148 -114 -156 -114 -5 0 -45 36 -89 80 -91 91 -90 78 -6 182 l46 58
102 -102 c57 -57 103 -103 103 -104z m376 130 l58 -75 -85 -85 c-46 -46 -87
-84 -92 -84 -10 0 -118 82 -136 103 -10 13 3 31 86 116 54 55 101 100 104 100
4 1 33 -33 65 -75z m-603 -302 c-46 -34 -178 -92 -209 -92 -31 0 -34 3 -34 30
0 36 18 82 67 169 l35 63 79 -78 c73 -72 78 -80 62 -92z m734 116 c36 -58 72
-147 73 -180 0 -24 -4 -28 -30 -28 -37 0 -113 30 -180 71 l-52 32 73 73 c41
41 77 74 81 74 4 0 20 -19 35 -42z m-344 -76 l47 -37 -80 -80 -80 -80 -77 78
-78 78 34 27 c19 15 55 44 79 65 l44 37 31 -26 c18 -14 53 -42 80 -62z"/>
<path d="M672 795 c-63 -28 -76 -121 -23 -169 50 -46 139 -19 161 48 15 47 -8
98 -55 120 -40 19 -41 19 -83 1z"/>
</g>
</svg>
